<?xml version="1.0" encoding="UTF-8"?>
<svg version="1.1" xmlns="http://www.w3.org/2000/svg" width="512" height="512">
<path d="M0 0 C168.96 0 337.92 0 512 0 C512 168.96 512 337.92 512 512 C343.04 512 174.08 512 0 512 C0 343.04 0 174.08 0 0 Z " fill="#FDFDFA" transform="translate(0,0)"/>
<path d="M0 0 C16.81541683 9.50436604 31.20816232 22.60781217 45 36 C45.63421875 36.61520508 46.2684375 37.23041016 46.921875 37.86425781 C47.85966797 38.78609863 47.85966797 38.78609863 48.81640625 39.7265625 C49.38174072 40.28166504 49.9470752 40.83676758 50.52954102 41.40869141 C52 43 52 43 53.875 46 C55.74244426 48.16412604 55.74244426 48.16412604 57.85546875 48.1875 C63.11826834 47.7403949 68.14476888 46.19619326 73.20703125 44.7578125 C102.76934505 36.73670917 144.33127475 35.38139949 172.90307617 47.82910156 C175.20305125 48.25261214 175.20305125 48.25261214 177.29907227 46.23681641 C178.12979248 45.36718262 178.9605127 44.49754883 179.81640625 43.6015625 C180.27297104 43.13317963 180.72953583 42.66479675 181.19993591 42.18222046 C182.66641952 40.67448698 184.11519967 39.15113878 185.5625 37.625 C192.67190188 30.19835519 199.8599579 23.32875324 208 17 C208.66378662 16.47744629 209.32757324 15.95489258 210.01147461 15.41650391 C238.36315345 -6.62918963 238.36315345 -6.62918963 253 -5 C258.30090182 -3.19969372 260.19948859 -0.74487737 263 4 C266.92453635 14.93597612 267.62812266 25.62716068 267.4375 37.125 C267.4310144 37.88391541 267.42452881 38.64283081 267.41784668 39.42474365 C267.30664261 52.12764482 266.41858366 64.50841406 264 77 C263.87141602 77.71607422 263.74283203 78.43214844 263.61035156 79.16992188 C260.70853826 95.01544692 254.73303259 110.59188119 247.69238281 125.03881836 C245.63436777 130.86816773 249.23852857 136.7514993 251.65600586 141.98339844 C255.71607077 150.41295806 260.17796577 157.91174023 269 162 C271.65147386 162.75251353 274.31440529 163.37336124 277 164 C278 165 278 165 278.4375 167.9375 C278.31241376 173.48678059 275.35793812 177.76291666 272 182 C267.75161748 186.01458788 263.32786204 189.54476404 258 192 C261.87070823 194.49723112 265.88689112 196.32916872 270.109375 198.1328125 C272 199 272 199 273 200 C273.603381 207.1400085 270.40493034 210.70217838 266 216 C259.77264985 222.99435515 253.15306864 228.81229863 245.4453125 234.1484375 C243.12071388 235.90859684 241.41077166 237.633859 239.5625 239.875 C218.19872171 265.74440926 181.08574881 278.00015056 149 282 C146.68858063 282.10927574 144.37591987 282.19814252 142.0625 282.25 C138.8723193 282.43229604 137.4988688 282.57695926 135.046875 284.65625 C133.8957606 286.0458836 132.78506027 287.47005865 131.71875 288.92578125 C128.05352768 293.34903819 122.54578781 295.8107227 117 297 C118.98 297.33 120.96 297.66 123 298 C121.54429523 304.94148874 119.7046475 311.70223479 117.6875 318.5 C117.2239209 320.07515381 117.2239209 320.07515381 116.75097656 321.68212891 C116.12802903 323.79789114 115.5038639 325.91329529 114.87841797 328.02832031 C113.87226949 331.43211109 112.87338094 334.83799418 111.87524414 338.24414062 C111.27312005 340.29620586 110.66835169 342.34747008 110.0625 344.3984375 C109.39142529 346.67318339 108.72423744 348.94908282 108.0625 351.2265625 C107.794375 352.14179688 107.52625 353.05703125 107.25 354 C107.02828125 354.763125 106.8065625 355.52625 106.578125 356.3125 C106 358 106 358 105 359 C102.30345146 359.07319621 99.63308542 359.09242537 96.9375 359.0625 C96.17888672 359.05798828 95.42027344 359.05347656 94.63867188 359.04882812 C92.75908129 359.0370068 90.87953101 359.01907078 89 359 C88.56300781 357.41638672 88.56300781 357.41638672 88.1171875 355.80078125 C84.81151411 343.84792505 81.42216667 331.91998603 78 320 C77.7666394 320.91942383 77.7666394 320.91942383 77.52856445 321.85742188 C74.34346989 334.35935635 70.97472418 346.7251165 67 359 C61.72 359 56.44 359 51 359 C48.78583349 352.55402414 46.87754664 346.08491908 45.125 339.5 C42.88378105 331.17557291 40.54171582 322.89004913 38.078125 314.62890625 C37.72234375 313.43136719 37.3665625 312.23382813 37 311 C36.62359375 309.81277344 36.2471875 308.62554687 35.859375 307.40234375 C35 304 35 304 35 298 C39.62 298 44.24 298 49 298 C51.98616954 305.27306322 53.78158688 312.74358212 55.625 320.375 C56.23914902 322.90440757 56.85720709 325.43279277 57.4765625 327.9609375 C57.74549316 329.07259277 58.01442383 330.18424805 58.29150391 331.32958984 C58.88964322 333.94836183 58.88964322 333.94836183 60 336 C60.9174318 332.64604216 61.833802 329.29179507 62.75 325.9375 C63.02223389 324.94210205 63.29446777 323.9467041 63.57495117 322.92114258 C64.81928418 318.3634838 66.05809459 313.8050329 67.25390625 309.234375 C67.4353418 308.542229 67.61677734 307.85008301 67.80371094 307.13696289 C68.28473863 305.29386976 68.76163689 303.44970032 69.23828125 301.60546875 C70 299 70 299 71 298 C73.35313555 297.92728259 75.70833668 297.91629132 78.0625 297.9375 C79.35285156 297.94652344 80.64320313 297.95554687 81.97265625 297.96484375 C83.47119141 297.98224609 83.47119141 297.98224609 85 298 C87.39171157 304.10421908 89.30079183 310.25008785 91.0625 316.5625 C91.31837891 317.46935547 91.57425781 318.37621094 91.83789062 319.31054688 C92.33451884 321.0710875 92.82907356 322.8322147 93.32128906 324.59399414 C93.92227519 326.72446835 94.54674662 328.84645397 95.17578125 330.96875 C95.94887531 333.81197743 96.17731832 336.07424779 96 339 C96.66 339 97.32 339 98 339 C98.12181641 337.26943359 98.12181641 337.26943359 98.24609375 335.50390625 C99.06235925 328.15751679 101.16667353 321.06291216 103.0625 313.9375 C103.44393914 312.48517819 103.82480326 311.03270522 104.20507812 309.58007812 C105.13009513 306.05161797 106.06287939 302.52526749 107 299 C106.27627197 298.95101563 105.55254395 298.90203125 104.80688477 298.8515625 C92.86003369 297.92713343 84.73085072 294.34402052 75.86328125 286.18359375 C74.01644974 284.01927757 73.37199419 282.78049895 73 280 C71.45505859 279.76216797 71.45505859 279.76216797 69.87890625 279.51953125 C39.82807935 274.70012632 13.02143258 262.8295779 -9.04760742 241.59204102 C-13.14779518 237.66011685 -17.32270904 234.02239439 -21.875 230.625 C-42.58336481 215.10014162 -42.58336481 215.10014162 -44.65234375 204.73046875 C-44.82443359 203.37888672 -44.82443359 203.37888672 -45 202 C-43.60974609 201.27683594 -43.60974609 201.27683594 -42.19140625 200.5390625 C-40.98161257 199.9013418 -39.77198574 199.26330452 -38.5625 198.625 C-37.95083984 198.30789062 -37.33917969 197.99078125 -36.70898438 197.6640625 C-33.24761656 195.97695701 -33.24761656 195.97695701 -31 193 C-31.49628906 192.64808594 -31.99257812 192.29617187 -32.50390625 191.93359375 C-40.33933648 186.23915394 -48.78408879 179.89016351 -50.5625 169.8125 C-50 167 -50 167 -47.9375 164.8125 C-45 163 -45 163 -41.6875 161.6875 C-32.39209686 157.8633704 -27.83296783 150.13277519 -23.5 141.5 C-22.96375 140.49324219 -22.4275 139.48648438 -21.875 138.44921875 C-18.08527855 131.11279525 -18.08527855 131.11279525 -18 123 C-18.8972767 120.21887087 -20.03887097 117.59468458 -21.25 114.9375 C-24.50036498 107.42148932 -26.99676229 99.95224667 -29 92 C-29.17128418 91.34563965 -29.34256836 90.6912793 -29.51904297 90.01708984 C-36.20017853 64.41110874 -41.41879571 29.41948534 -29.1015625 4.83203125 C-21.30229452 -8.13909174 -12.21994465 -6.16070756 0 0 Z " fill="#E03127" transform="translate(139,42)"/>
<path d="M0 0 C16.81541683 9.50436604 31.20816232 22.60781217 45 36 C45.63421875 36.61520508 46.2684375 37.23041016 46.921875 37.86425781 C47.85966797 38.78609863 47.85966797 38.78609863 48.81640625 39.7265625 C49.38174072 40.28166504 49.9470752 40.83676758 50.52954102 41.40869141 C52 43 52 43 53.875 46 C55.74244426 48.16412604 55.74244426 48.16412604 57.85546875 48.1875 C63.11826834 47.7403949 68.14476888 46.19619326 73.20703125 44.7578125 C102.76934505 36.73670917 144.33127475 35.38139949 172.90307617 47.82910156 C175.20305125 48.25261214 175.20305125 48.25261214 177.29907227 46.23681641 C178.12979248 45.36718262 178.9605127 44.49754883 179.81640625 43.6015625 C180.27297104 43.13317963 180.72953583 42.66479675 181.19993591 42.18222046 C182.66641952 40.67448698 184.11519967 39.15113878 185.5625 37.625 C192.67190188 30.19835519 199.8599579 23.32875324 208 17 C208.66378662 16.47744629 209.32757324 15.95489258 210.01147461 15.41650391 C238.36315345 -6.62918963 238.36315345 -6.62918963 253 -5 C258.30090182 -3.19969372 260.19948859 -0.74487737 263 4 C266.92453635 14.93597612 267.62812266 25.62716068 267.4375 37.125 C267.4310144 37.88391541 267.42452881 38.64283081 267.41784668 39.42474365 C267.30664261 52.12764482 266.41858366 64.50841406 264 77 C263.87141602 77.71607422 263.74283203 78.43214844 263.61035156 79.16992188 C260.70853826 95.01544692 254.73303259 110.59188119 247.69238281 125.03881836 C245.63436777 130.86816773 249.23852857 136.7514993 251.65600586 141.98339844 C255.71607077 150.41295806 260.17796577 157.91174023 269 162 C271.65147386 162.75251353 274.31440529 163.37336124 277 164 C278 165 278 165 278.4375 167.9375 C278.31241376 173.48678059 275.35793812 177.76291666 272 182 C267.75161748 186.01458788 263.32786204 189.54476404 258 192 C261.87070823 194.49723112 265.88689112 196.32916872 270.109375 198.1328125 C272 199 272 199 273 200 C273.603381 207.1400085 270.40493034 210.70217838 266 216 C259.77264985 222.99435515 253.15306864 228.81229863 245.4453125 234.1484375 C243.12071388 235.90859684 241.41077166 237.633859 239.5625 239.875 C218.19872171 265.74440926 181.08574881 278.00015056 149 282 C146.68858063 282.10927574 144.37591987 282.19814252 142.0625 282.25 C138.8723193 282.43229604 137.4988688 282.57695926 135.046875 284.65625 C133.8957606 286.0458836 132.78506027 287.47005865 131.71875 288.92578125 C128.05352768 293.34903819 122.54578781 295.8107227 117 297 C118.98 297.33 120.96 297.66 123 298 C121.54429523 304.94148874 119.7046475 311.70223479 117.6875 318.5 C117.2239209 320.07515381 117.2239209 320.07515381 116.75097656 321.68212891 C116.12802903 323.79789114 115.5038639 325.91329529 114.87841797 328.02832031 C113.87226949 331.43211109 112.87338094 334.83799418 111.87524414 338.24414062 C111.27312005 340.29620586 110.66835169 342.34747008 110.0625 344.3984375 C109.39142529 346.67318339 108.72423744 348.94908282 108.0625 351.2265625 C107.794375 352.14179688 107.52625 353.05703125 107.25 354 C107.02828125 354.763125 106.8065625 355.52625 106.578125 356.3125 C106 358 106 358 105 359 C102.30345146 359.07319621 99.63308542 359.09242537 96.9375 359.0625 C96.17888672 359.05798828 95.42027344 359.05347656 94.63867188 359.04882812 C92.75908129 359.0370068 90.87953101 359.01907078 89 359 C88.56300781 357.41638672 88.56300781 357.41638672 88.1171875 355.80078125 C84.81151411 343.84792505 81.42216667 331.91998603 78 320 C77.7666394 320.91942383 77.7666394 320.91942383 77.52856445 321.85742188 C74.34346989 334.35935635 70.97472418 346.7251165 67 359 C61.72 359 56.44 359 51 359 C48.78583349 352.55402414 46.87754664 346.08491908 45.125 339.5 C42.88378105 331.17557291 40.54171582 322.89004913 38.078125 314.62890625 C37.72234375 313.43136719 37.3665625 312.23382813 37 311 C36.62359375 309.81277344 36.2471875 308.62554687 35.859375 307.40234375 C35 304 35 304 35 298 C39.62 298 44.24 298 49 298 C51.98616954 305.27306322 53.78158688 312.74358212 55.625 320.375 C56.23914902 322.90440757 56.85720709 325.43279277 57.4765625 327.9609375 C57.74549316 329.07259277 58.01442383 330.18424805 58.29150391 331.32958984 C58.88964322 333.94836183 58.88964322 333.94836183 60 336 C60.9174318 332.64604216 61.833802 329.29179507 62.75 325.9375 C63.02223389 324.94210205 63.29446777 323.9467041 63.57495117 322.92114258 C64.81928418 318.3634838 66.05809459 313.8050329 67.25390625 309.234375 C67.4353418 308.542229 67.61677734 307.85008301 67.80371094 307.13696289 C68.28473863 305.29386976 68.76163689 303.44970032 69.23828125 301.60546875 C70 299 70 299 71 298 C73.35313555 297.92728259 75.70833668 297.91629132 78.0625 297.9375 C79.35285156 297.94652344 80.64320313 297.95554687 81.97265625 297.96484375 C83.47119141 297.98224609 83.47119141 297.98224609 85 298 C87.39171157 304.10421908 89.30079183 310.25008785 91.0625 316.5625 C91.31837891 317.46935547 91.57425781 318.37621094 91.83789062 319.31054688 C92.33451884 321.0710875 92.82907356 322.8322147 93.32128906 324.59399414 C93.92227519 326.72446835 94.54674662 328.84645397 95.17578125 330.96875 C95.94887531 333.81197743 96.17731832 336.07424779 96 339 C96.66 339 97.32 339 98 339 C98.12181641 337.26943359 98.12181641 337.26943359 98.24609375 335.50390625 C99.06235925 328.15751679 101.16667353 321.06291216 103.0625 313.9375 C103.44393914 312.48517819 103.82480326 311.03270522 104.20507812 309.58007812 C105.13009513 306.05161797 106.06287939 302.52526749 107 299 C106.27627197 298.95101563 105.55254395 298.90203125 104.80688477 298.8515625 C92.86003369 297.92713343 84.73085072 294.34402052 75.86328125 286.18359375 C74.01644974 284.01927757 73.37199419 282.78049895 73 280 C71.45505859 279.76216797 71.45505859 279.76216797 69.87890625 279.51953125 C39.82807935 274.70012632 13.02143258 262.8295779 -9.04760742 241.59204102 C-13.14779518 237.66011685 -17.32270904 234.02239439 -21.875 230.625 C-42.58336481 215.10014162 -42.58336481 215.10014162 -44.65234375 204.73046875 C-44.82443359 203.37888672 -44.82443359 203.37888672 -45 202 C-43.60974609 201.27683594 -43.60974609 201.27683594 -42.19140625 200.5390625 C-40.98161257 199.9013418 -39.77198574 199.26330452 -38.5625 198.625 C-37.95083984 198.30789062 -37.33917969 197.99078125 -36.70898438 197.6640625 C-33.24761656 195.97695701 -33.24761656 195.97695701 -31 193 C-31.49628906 192.64808594 -31.99257812 192.29617187 -32.50390625 191.93359375 C-40.33933648 186.23915394 -48.78408879 179.89016351 -50.5625 169.8125 C-50 167 -50 167 -47.9375 164.8125 C-45 163 -45 163 -41.6875 161.6875 C-32.39209686 157.8633704 -27.83296783 150.13277519 -23.5 141.5 C-22.96375 140.49324219 -22.4275 139.48648438 -21.875 138.44921875 C-18.08527855 131.11279525 -18.08527855 131.11279525 -18 123 C-18.8972767 120.21887087 -20.03887097 117.59468458 -21.25 114.9375 C-24.50036498 107.42148932 -26.99676229 99.95224667 -29 92 C-29.17128418 91.34563965 -29.34256836 90.6912793 -29.51904297 90.01708984 C-36.20017853 64.41110874 -41.41879571 29.41948534 -29.1015625 4.83203125 C-21.30229452 -8.13909174 -12.21994465 -6.16070756 0 0 Z M-20.875 5.125 C-33.58011622 24.00743134 -27.44682509 59.44538948 -23.578125 80.27099609 C-21.17313936 92.51025751 -17.10619804 104.24401733 -13 116 C-12.34 116 -11.68 116 -11 116 C-10.18208984 114.38544922 -10.18208984 114.38544922 -9.34765625 112.73828125 C-5.01332985 104.30805517 -0.50951 96.46904608 5.25 88.9296875 C7.26350559 85.55886341 7.45184208 82.84616589 8 79 C9.62890625 77.22265625 9.62890625 77.22265625 11.5625 76.0625 C12.20316406 75.66160156 12.84382813 75.26070313 13.50390625 74.84765625 C13.99761719 74.56792969 14.49132812 74.28820312 15 74 C13.02598937 71.46198633 11.12404107 69.11370431 8.75 66.9375 C7 65 7 65 7 61 C13.33393082 60.65451286 18.10261508 61.70657253 24 64 C22.52361193 59.58724009 20.1098916 56.22966603 17.25 52.625 C16.79898926 52.04991699 16.34797852 51.47483398 15.88330078 50.88232422 C14.59633123 49.248774 13.30002049 47.62317146 12 46 C11.43539062 45.2884375 10.87078125 44.576875 10.2890625 43.84375 C4.2182643 36.46487926 -3.43679675 30.75993951 -11 25 C-10.67 24.01 -10.34 23.02 -10 22 C2.91674784 23.41218089 13.86960464 36.71189219 21.8046875 46.34375 C34.04859518 61.66313103 34.04859518 61.66313103 33.96484375 67.4140625 C32.62984435 70.99207707 30.21114922 72.96640241 27.375 75.375 C26.27265345 76.35067738 25.17108672 77.32723654 24.0703125 78.3046875 C23.53825195 78.77100586 23.00619141 79.23732422 22.45800781 79.71777344 C7.41830384 92.94425121 -1.17863387 110.57214277 -9.0625 128.625 C-24.57214692 164.08707289 -24.57214692 164.08707289 -42 171 C-38.18428298 181.1752454 -28.27365358 186.42384197 -19 191 C-19.30227214 194.33080652 -19.7416061 195.7344285 -22.109375 198.16796875 C-22.98078125 198.83441406 -23.8521875 199.50085938 -24.75 200.1875 C-25.61109375 200.86167969 -26.4721875 201.53585938 -27.359375 202.23046875 C-29.85958183 203.90590321 -32.16936053 205.00723975 -35 206 C-30.61990261 216.52202165 -15.2959304 228.41024789 -5 233 C-5 233.66 -5 234.32 -5 235 C13.70940509 254.86498599 42.21859959 267.19840291 69 271 C68.97679687 269.87464844 68.95359375 268.74929688 68.9296875 267.58984375 C68.56784294 242.56774452 68.56784294 242.56774452 73.3125 232.9375 C75.69690573 227.48351447 75.02357441 222.81744766 73.5859375 217.140625 C71.15533821 212.32731999 67.75721074 211.14066243 62.890625 209.23046875 C57.84382735 207.08216975 55.97828547 203.4674282 53 199 C33.256192 199.31204294 16.3182325 206.06583549 0 217 C-2.375 217.75 -2.375 217.75 -4 218 C-2.29875658 211.57308042 2.55005798 208.4500313 7.9765625 205.23828125 C16.96733504 200.47420523 26.16338472 197.50640789 36 195 C36.92683594 194.7525 37.85367188 194.505 38.80859375 194.25 C45.49891496 192.66805213 55.72920122 190.86460061 62 194 C61.855625 194.86625 61.71125 195.7325 61.5625 196.625 C62.12367946 200.95409869 63.63374707 202.01723091 66.8828125 204.703125 C74.13446201 209.14509481 82.90088819 209.16551127 91.0078125 207.3125 C97.10165781 205.27556006 104.96804163 202.06391674 108 196 C108.75383338 193.21555423 108.75383338 193.21555423 108 190 C104.99040617 186.51015183 101.19744987 183.90330608 97.53515625 181.140625 C96.73980469 180.53734375 95.94445312 179.9340625 95.125 179.3125 C94.38507813 178.77238281 93.64515625 178.23226562 92.8828125 177.67578125 C89.77426951 174.909049 89.08354621 172.6564345 88.5625 168.5625 C89 165 89 165 91.1875 162.1875 C98.84196449 156.23402762 108.66155701 156.36302947 118 157 C129.83261139 158.9044203 129.83261139 158.9044203 134 164 C135.20624409 168.07107379 135.40552817 170.11521128 133.625 174 C129.61451829 178.58340767 124.79097561 182.03579454 119.82421875 185.53125 C117.97266281 186.92641039 116.4323088 188.17706152 115 190 C114.597982 193.75216796 114.956121 195.69362511 117.3359375 198.671875 C125.782427 206.68216082 137.85298916 207.55987443 148.95703125 207.3515625 C154.25712101 207.05663115 158.86395053 205.3727442 163 202 C164.42201126 200.19767444 164.42201126 200.19767444 165 198 C164.70910355 196.32540508 164.37981533 194.65669225 164 193 C186.66938004 194.28328586 213.02589974 198.02589974 230 215 C230 215.99 230 216.98 230 218 C225.57601415 217.44092486 222.80732804 215.77207025 219.125 213.3125 C205.98817877 204.93474207 188.83727439 198.34949584 173 199 C172.2575 200.546875 172.2575 200.546875 171.5 202.125 C169.76097789 205.23679211 168.10602522 206.74798517 165.1015625 208.62890625 C160.20434312 212.18222717 158.7531512 216.21134327 156.875 221.8125 C153.97111136 229.7540104 151.07698724 236.92301276 145 243 C144.48469358 245.30805931 144.07196295 247.63939774 143.7109375 249.9765625 C143.54871201 251.00443375 143.54871201 251.00443375 143.38320923 252.05307007 C143.03945158 254.2425951 142.70710539 256.43368035 142.375 258.625 C142.14397839 260.10949179 141.91221664 261.5938686 141.6796875 263.078125 C141.11119628 266.7174548 140.55292635 270.35826911 140 274 C175.44450296 271.89709079 205.81848611 260.20803294 232 236 C236.23077602 232.1963309 240.54457313 228.53853262 245 225 C246.66741491 223.66760251 248.33411001 222.3343036 250 221 C250.72703125 220.42378906 251.4540625 219.84757813 252.203125 219.25390625 C257.22121548 215.10727805 260.66181615 210.57628438 264 205 C259.95368931 201.72395087 255.45698412 199.72123845 250.77734375 197.5 C246.49142943 195.18524459 246.49142943 195.18524459 245 193 C244.890625 191.03125 244.890625 191.03125 246 189 C248.25699999 187.65289006 250.36397189 186.5577736 252.75 185.5 C259.98658532 182.21200791 264.90274046 178.98051626 269 172 C269 171.34 269 170.68 269 170 C268.28714844 169.64808594 267.57429688 169.29617187 266.83984375 168.93359375 C250.20299873 160.3576696 243.55496561 145.83191222 237.828125 128.44140625 C237.45171875 127.24386719 237.0753125 126.04632813 236.6875 124.8125 C229.52437858 102.86688597 217.75461355 81.88344362 198 69 C199.72440905 53.17738182 218.11959775 36.64370987 230 27 C234.74065216 23.70807966 238.13806825 21.70435475 244 22 C244 22.99 244 23.98 244 25 C242.12109375 26.515625 242.12109375 26.515625 239.4375 28.25 C227.22579214 36.84225836 211.86193919 50.41418242 207 65 C208.7015625 64.505 208.7015625 64.505 210.4375 64 C214.99795849 62.84152933 219.32161006 62.80506709 224 63 C221.90392016 68.12375072 219.64879074 70.10741909 215 73 C215 73.66 215 74.32 215 75 C216.97321053 76.3726682 218.97543152 77.70427617 221 79 C223 81 223 81 223.86328125 83.23046875 C225.23105185 86.56294075 227.16633655 89.35627873 229.1875 92.3125 C233.14965086 98.24407054 236.12851945 104.32236109 238.79174805 110.93286133 C240.07702244 114.65058698 240.07702244 114.65058698 243 117 C250.10521564 98.7148197 255.43586281 80.48389369 258 61 C258.09571289 60.27683594 258.19142578 59.55367187 258.29003906 58.80859375 C259.12423103 51.63274884 259.22009046 44.44946846 259.24023438 37.23291016 C259.24995209 35.13534032 259.2810865 33.03874828 259.3125 30.94140625 C259.62967205 17.00224129 259.62967205 17.00224129 254.12719727 4.703125 C251.49051857 2.5920874 249.45231235 2.44170582 246.11865234 2.62207031 C242.42078847 3.28170309 239.49810815 4.94685829 236.3125 6.875 C235.62115967 7.27992676 234.92981934 7.68485352 234.2175293 8.10205078 C227.37823518 12.20138169 221.13344527 16.92162855 215 22 C214.4627832 22.44102051 213.92556641 22.88204102 213.37207031 23.33642578 C193.86461509 38.17258943 193.86461509 38.17258943 179 57 C172.47457375 56.37889597 166.48486059 54.83794393 160.1875 53.0625 C143.54528109 48.57372521 127.18789267 47.34519148 110 48 C109.13455566 48.0304541 108.26911133 48.0609082 107.37744141 48.09228516 C91.63443741 48.76092892 76.93481411 52.10361895 61.77294922 56.27563477 C60.85787598 56.51467529 59.94280273 56.75371582 59 57 C58.11691162 57.25120605 57.23382324 57.50241211 56.32397461 57.76123047 C55.55706299 57.84002441 54.79015137 57.91881836 54 58 C51.62618304 55.91786773 49.71943829 53.94581303 47.6875 51.5625 C46.43987833 50.16844075 45.18978814 48.7765876 43.9375 47.38671875 C42.96683594 46.29883057 42.96683594 46.29883057 41.9765625 45.18896484 C31.3586034 33.42999482 19.99032822 23.07535316 7 14 C5.93072266 13.25218262 5.93072266 13.25218262 4.83984375 12.48925781 C2.74437392 11.04695848 0.62978131 9.64103238 -1.5 8.25 C-2.12197266 7.83121582 -2.74394531 7.41243164 -3.38476562 6.98095703 C-8.8359644 3.55436483 -15.32589774 1.02348963 -20.875 5.125 Z " fill="#2C2617" transform="translate(139,42)"/>
<path d="M0 0 C2.27903878 3.45785195 2.88526799 5.60222457 2.8125 9.75 C-0.24817225 16.600076 -7.14682563 20.99890255 -13.20703125 25.125 C-15.09631522 26.38971276 -15.09631522 26.38971276 -17.1875 28.75 C-17.67832791 32.31709633 -17.67832791 32.31709633 -16.1875 35.75 C-10.13610858 42.40653056 -1.28008653 44.36709876 7.44921875 45.0234375 C15.70187916 45.31053066 23.03823502 45.2032065 29.8125 39.75 C30.78858217 36.82175348 30.89476668 34.79386724 30.8125 31.75 C53.9314919 30.85314256 76.49139392 36.84483491 95.09765625 51.00390625 C96.98615113 52.92681561 97.43790295 54.11629456 97.8125 56.75 C95.58203125 57.4375 95.58203125 57.4375 92.8125 57.75 C90.69921875 56.5625 90.69921875 56.5625 88.5 54.75 C74.37384581 44.32157441 56.90333472 40.38366961 39.8125 37.75 C39.585625 38.471875 39.35875 39.19375 39.125 39.9375 C37.13016176 44.21215336 33.83783914 46.85202217 30.328125 49.92578125 C27.42726183 53.18249565 26.19307267 56.36979598 24.875 60.4375 C22.09823747 68.40034178 18.91154674 75.75432693 12.8125 81.75 C12.503125 82.389375 12.19375 83.02875 11.875 83.6875 C10.57927303 86.20273471 8.8692552 87.83036181 6.8125 89.75 C6.8434375 88.5434375 6.8434375 88.5434375 6.875 87.3125 C7.10883621 84.81645115 7.10883621 84.81645115 5.8125 83.75 C4.69382311 85.98735378 4.49401721 87.67168597 4.19921875 90.15234375 C0.75841235 117.53428608 0.75841235 117.53428608 -8.1875 124.75 C-17.37175169 129.973044 -27.75594829 131.57320735 -38.1171875 129.03125 C-45.93183038 126.08591347 -51.13584683 121.84510829 -55.02734375 114.4375 C-56.8554028 110.2028043 -58.08383724 105.82048777 -59.29296875 101.375 C-59.89430182 98.60394635 -59.89430182 98.60394635 -62.1875 97.75 C-62.5175 100.06 -62.8475 102.37 -63.1875 104.75 C-68.0987901 97.38306485 -64.8141414 84.92740922 -63.1875 76.75 C-62.49465734 74.9560324 -61.75000369 73.18054 -60.9375 71.4375 C-58.85417248 66.84958387 -59.26855209 63.76298846 -60.609375 58.9765625 C-61.1875 56.75 -61.1875 56.75 -61.1875 52.75 C-62.1775 52.6571875 -62.1775 52.6571875 -63.1875 52.5625 C-70.16234312 50.67347999 -74.98722896 46.47764232 -79.1875 40.75 C-79.5175 40.09 -79.8475 39.43 -80.1875 38.75 C-98.34579964 39.03698462 -115.43420252 44.52841113 -130.3984375 54.99609375 C-133.1875 56.75 -133.1875 56.75 -137.1875 56.75 C-136.50868466 51.58395081 -134.73080721 49.78665127 -130.796875 46.578125 C-120.55266302 39.40104235 -109.17573592 35.80464922 -97.1875 32.75 C-96.26066406 32.5025 -95.33382812 32.255 -94.37890625 32 C-87.46374258 30.36488741 -80.25452955 30.12508711 -73.1875 30.75 C-71.7025 31.74 -71.7025 31.74 -70.1875 32.75 C-70.2803125 34.1421875 -70.2803125 34.1421875 -70.375 35.5625 C-70.51774181 38.9975808 -70.51774181 38.9975808 -67.5625 41.5 C-61.10511333 46.62491005 -53.00988178 46.48081075 -45.1875 45.75 C-38.90425421 44.25782995 -31.54573985 41.77371958 -27.1875 36.75 C-26.06086981 34.02477292 -25.63742821 31.6995294 -25.1875 28.75 C-25.77917969 28.48832031 -26.37085938 28.22664063 -26.98046875 27.95703125 C-29.30449378 26.68601579 -30.70447812 25.37015004 -32.5 23.4375 C-34.85981608 20.98613933 -37.17480281 18.95773645 -40 17.0625 C-44.35238223 13.90488936 -44.35238223 13.90488936 -45.1875 10.75 C-45.62326552 6.75548269 -45.6251124 4.52019782 -43.625 1 C-33.3183686 -8.5138136 -11.13876329 -7.86265644 0 0 Z " fill="#2C2516" transform="translate(272.1875,203.25)"/>
<path d="M0 0 C1.12148438 -0.01417969 2.24296875 -0.02835937 3.3984375 -0.04296875 C6.57384842 0.18384632 8.76734718 0.83359332 11.625 2.1875 C11.15612515 6.87624849 10.38144854 11.34799268 9.3125 15.9375 C7.3905253 24.53040632 6.31652648 33.23824079 5.24682617 41.97363281 C3.90866369 52.13828953 2.05571411 63.38734159 -6.375 70.1875 C-15.55925169 75.410544 -25.94344829 77.01070735 -36.3046875 74.46875 C-44.30250205 71.45437613 -49.22100212 67.13649611 -53.296875 59.6640625 C-55.94416697 53.58296428 -56.73647487 48.03884432 -56.6875 41.5 C-56.68186035 40.70835449 -56.6762207 39.91670898 -56.67041016 39.10107422 C-56.41004907 26.42071588 -52.81938462 13.10218457 -43.5625 3.9375 C-39.91763836 1.07467764 -37.02164781 0.37673737 -32.4296875 0.7421875 C-29.65563271 1.3434085 -27.60922405 2.45777816 -25.375 4.1875 C-25.7875 5.3425 -26.2 6.4975 -26.625 7.6875 C-33.02300789 26.65862607 -33.02300789 26.65862607 -31.375 46.1875 C-29.89 46.6825 -29.89 46.6825 -28.375 47.1875 C-28.34921875 46.3625 -28.3234375 45.5375 -28.296875 44.6875 C-27.64990884 31.51291645 -25.68379595 16.91890616 -17.375 6.1875 C-12.00847422 1.63562709 -7.00482598 0.04007338 0 0 Z " fill="#EB4B42" transform="translate(270.375,257.8125)"/>
<path d="M0 0 C0.54446777 0.4326416 1.08893555 0.8652832 1.64990234 1.31103516 C5.71393537 4.52397456 9.89235834 7.22986303 14.4140625 9.74609375 C16.4375 11 16.4375 11 19.4375 14 C14.9825 16.475 14.9825 16.475 10.4375 19 C10.4375 20.32 10.4375 21.64 10.4375 23 C13.62924043 22.54403708 16.46534655 21.98977066 19.5 20.875 C22.77430655 19.89967465 24.29690169 19.64190343 27.4375 21 C30.4375 25.86206897 30.4375 25.86206897 30.4375 29 C25.1575 29 19.8775 29 14.4375 29 C14.9325 31.97 14.9325 31.97 15.4375 35 C12.27469266 39.25002236 8.41667193 41.41938044 3.4375 43 C-7.31696892 44.13910263 -18.41483997 43.2933893 -28.0625 38.125 C-34.26479732 32.85304728 -34.26479732 32.85304728 -34.9453125 28.6171875 C-34.41108349 24.96480546 -32.85119973 23.91861528 -30.0625 21.5625 C-29.155 20.78648437 -28.2475 20.01046875 -27.3125 19.2109375 C-24.33658561 16.81836996 -21.31023889 14.53892838 -18.15625 12.38671875 C-16.25566904 10.73302699 -15.44919472 9.35108449 -14.5625 7 C-14.69723033 3.22755064 -14.86501921 0.85990782 -17.2734375 -2.109375 C-24.16466693 -7.80110716 -35.05452771 -7.65534381 -43.5625 -7 C-49.87474622 -6.27783624 -54.61128904 -5.06253207 -59.5625 -1 C-61.09464888 2.06429776 -60.79188548 4.6165642 -60.5625 8 C-58.796509 12.52535194 -55.57625791 14.64403416 -51.76953125 17.3984375 C-41.90969246 24.55336477 -41.90969246 24.55336477 -40.8125 29.125 C-41.96052165 33.52574965 -43.79439152 35.81898545 -47.5859375 38.3515625 C-56.32339681 43.45089882 -64.47692964 45.00002028 -74.5625 44 C-79.56177558 42.59644072 -84.58132675 40.40695176 -87.5625 36 C-87.8125 32.75 -87.8125 32.75 -87.5625 30 C-89.859037 28.8517315 -91.14563167 28.88438825 -93.6953125 28.90234375 C-94.50097656 28.90556641 -95.30664062 28.90878906 -96.13671875 28.91210938 C-96.97847656 28.92048828 -97.82023438 28.92886719 -98.6875 28.9375 C-99.96173828 28.94426758 -99.96173828 28.94426758 -101.26171875 28.95117188 C-103.36200909 28.96297126 -105.4622633 28.98090694 -107.5625 29 C-106.27618455 24.96208801 -104.87016945 21.56639824 -102.5625 18 C-97.68469737 18.99893997 -93.1915168 20.14839328 -88.5625 22 C-87.2425 22 -85.9225 22 -84.5625 22 C-84.71353828 20.05600216 -84.71353828 20.05600216 -85.5625 18 C-87.6345554 16.64897007 -87.6345554 16.64897007 -90.125 15.75 C-91.36443359 15.24726563 -91.36443359 15.24726563 -92.62890625 14.734375 C-93.58603516 14.37085938 -93.58603516 14.37085938 -94.5625 14 C-93.5625 11 -93.5625 11 -90.640625 9.30859375 C-89.36736653 8.67923352 -88.09110271 8.05593069 -86.8125 7.4375 C-81.35456294 4.685714 -76.55139396 1.67064439 -71.8125 -2.1875 C-49.59506535 -20.10827834 -21.63625729 -16.9516635 0 0 Z " fill="#F9F8F4" transform="translate(288.5625,206)"/>
<path d="M0 0 C25.97570737 0.028004 25.97570737 0.028004 35.3125 9.25 C42.20343889 18.62284485 43.73377161 27.84892989 42.3125 39.25 C39.99963503 46.81637254 36.1141036 53.09692711 29.3125 57.25 C20.69781981 61.49883553 12.65552627 61.77595751 3.1875 61.5625 C1.8489723 61.55097776 0.51042839 61.5412018 -0.828125 61.53320312 C-10.51871347 61.41878653 -10.51871347 61.41878653 -11.6875 60.25 C-11.78655152 58.41427369 -11.81549207 56.57472425 -11.81689453 54.73632812 C-11.82004669 53.55840698 -11.82319885 52.38048584 -11.82644653 51.16687012 C-11.8244223 49.88461548 -11.82239807 48.60236084 -11.8203125 47.28125 C-11.82126923 45.97546997 -11.82222595 44.66968994 -11.82321167 43.32434082 C-11.82468833 40.55687278 -11.82253511 37.78943696 -11.81787109 35.02197266 C-11.81217381 31.46737351 -11.81545298 27.91284986 -11.82144356 24.35825348 C-11.82591747 20.97841286 -11.82278886 17.59859277 -11.8203125 14.21875 C-11.82233673 12.93649536 -11.82436096 11.65424072 -11.82644653 10.33312988 C-11.82329437 9.15520874 -11.82014221 7.9772876 -11.81689453 6.76367188 C-11.81609894 5.72078003 -11.81530334 4.67788818 -11.81448364 3.60339355 C-11.51336833 -1.97719014 -4.31951872 0.01145046 0 0 Z " fill="#2B2617" transform="translate(111.6875,411.75)"/>
<path d="M0 0 C6.60291341 0.08011624 6.60291341 0.08011624 9.79296875 2.640625 C11.92267515 5.57391134 13.67920511 8.57936276 15.4375 11.75 C16.67520487 13.76426404 17.93858648 15.76092218 19.20410156 17.7578125 C20.03718009 19.07868456 20.86152632 20.40512668 21.67480469 21.73828125 C25.03228047 27.2399568 28.70208666 32.49919509 32.4375 37.75 C32.47508423 36.12203491 32.47508423 36.12203491 32.51342773 34.46118164 C32.60733755 30.448684 32.70759767 26.43636618 32.80981445 22.42407227 C32.85322573 20.68485712 32.89489612 18.94559765 32.93481445 17.20629883 C32.99236768 14.71161512 33.0561042 12.2171559 33.12109375 9.72265625 C33.13780624 8.94036148 33.15451874 8.15806671 33.17173767 7.35206604 C33.32362829 1.86387171 33.32362829 1.86387171 34.4375 0.75 C36.45714199 0.67755947 38.47917124 0.66622812 40.5 0.6875 C42.15708984 0.70103516 42.15708984 0.70103516 43.84765625 0.71484375 C44.70230469 0.72644531 45.55695313 0.73804688 46.4375 0.75 C47.75288313 3.38076625 47.56460325 5.33946331 47.56689453 8.28540039 C47.57004669 9.44322525 47.57319885 10.60105011 47.57644653 11.79396057 C47.5744223 13.04918015 47.57239807 14.30439972 47.5703125 15.59765625 C47.57126923 16.87982529 47.57222595 18.16199432 47.57321167 19.48301697 C47.57468671 22.19743045 47.57253994 24.91181104 47.56787109 27.6262207 C47.56216822 31.11241041 47.56545754 34.59852323 47.57144356 38.08471012 C47.57591655 41.40153174 47.57278929 44.71833244 47.5703125 48.03515625 C47.57233673 49.29240005 47.57436096 50.54964386 47.57644653 51.84498596 C47.57171829 53.57699501 47.57171829 53.57699501 47.56689453 55.34399414 C47.56609894 56.36610489 47.56530334 57.38821564 47.56448364 58.44129944 C47.4375 60.75 47.4375 60.75 46.4375 61.75 C43.5234375 62.1640625 43.5234375 62.1640625 39.8125 62.375 C38.60335937 62.47039062 37.39421875 62.56578125 36.1484375 62.6640625 C30.45441979 61.26153603 28.5633124 57.4858151 25.4375 52.75 C24.84453125 51.88793945 24.2515625 51.02587891 23.640625 50.13769531 C21.81533275 47.46381958 20.02832436 44.7678026 18.25 42.0625 C17.64736328 41.15177734 17.04472656 40.24105469 16.42382812 39.30273438 C15.30279648 37.60826613 14.18320717 35.91284193 13.06567383 34.21606445 C11.19853648 31.3880611 9.31884268 28.56856833 7.4375 25.75 C7.41244385 26.80501709 7.3873877 27.86003418 7.36157227 28.94702148 C7.26765891 32.84770628 7.16739966 36.74820625 7.06518555 40.64868164 C7.02177561 42.33939299 6.98010511 44.03014991 6.94018555 45.72094727 C6.88262906 48.14613606 6.81889351 50.57109415 6.75390625 52.99609375 C6.72883751 54.13672523 6.72883751 54.13672523 6.70326233 55.30039978 C6.55137171 60.63612829 6.55137171 60.63612829 5.4375 61.75 C3.43950428 61.84873816 1.43792842 61.87971799 -0.5625 61.875 C-1.655625 61.87757813 -2.74875 61.88015625 -3.875 61.8828125 C-6.5625 61.75 -6.5625 61.75 -7.5625 60.75 C-7.66155152 58.91427369 -7.69049207 57.07472425 -7.69189453 55.23632812 C-7.69504669 54.05840698 -7.69819885 52.88048584 -7.70144653 51.66687012 C-7.6994223 50.38461548 -7.69739807 49.10236084 -7.6953125 47.78125 C-7.69626923 46.47546997 -7.69722595 45.16968994 -7.69821167 43.82434082 C-7.69968833 41.05687278 -7.69753511 38.28943696 -7.69287109 35.52197266 C-7.68717381 31.96737351 -7.69045298 28.41284986 -7.69644356 24.85825348 C-7.70091747 21.47841286 -7.69778886 18.09859277 -7.6953125 14.71875 C-7.69733673 13.43649536 -7.69936096 12.15424072 -7.70144653 10.83312988 C-7.69829437 9.65520874 -7.69514221 8.4772876 -7.69189453 7.26367188 C-7.69109894 6.22078003 -7.69030334 5.17788818 -7.68948364 4.10339355 C-7.4370692 -0.57461458 -4.07553407 0.29388793 0 0 Z " fill="#2D2919" transform="translate(229.5625,411.25)"/>
<path d="M0 0 C1.39456452 0.00667256 2.78911118 0.01863093 4.18359375 0.03515625 C4.89451172 0.03966797 5.60542969 0.04417969 6.33789062 0.04882812 C8.09899388 0.06064761 9.86005411 0.07858362 11.62109375 0.09765625 C14.72472672 6.81607951 17.39879349 13.64470929 19.94921875 20.58984375 C20.34308777 21.6576004 20.73695679 22.72535706 21.14276123 23.82546997 C21.96782699 26.06536464 22.79131088 28.30584257 23.61328125 30.546875 C24.87571356 33.98523877 26.14659298 37.42040341 27.41796875 40.85546875 C28.22056525 43.03757174 29.02266633 45.21985703 29.82421875 47.40234375 C30.20539856 48.43044159 30.58657837 49.45853943 30.97930908 50.51779175 C31.32677185 51.46953278 31.67423462 52.4212738 32.03222656 53.40185547 C32.33992981 54.23852753 32.64763306 55.07519958 32.96466064 55.93722534 C33.62109375 58.09765625 33.62109375 58.09765625 33.62109375 61.09765625 C31.32968089 61.15150146 29.03791187 61.19037712 26.74609375 61.22265625 C25.46992188 61.24585938 24.19375 61.2690625 22.87890625 61.29296875 C19.62109375 61.09765625 19.62109375 61.09765625 17.62109375 59.09765625 C16.96109375 56.12765625 16.30109375 53.15765625 15.62109375 50.09765625 C7.70109375 50.09765625 -0.21890625 50.09765625 -8.37890625 50.09765625 C-9.03890625 53.06765625 -9.69890625 56.03765625 -10.37890625 59.09765625 C-10.70890625 59.75765625 -11.03890625 60.41765625 -11.37890625 61.09765625 C-15.99890625 61.09765625 -20.61890625 61.09765625 -25.37890625 61.09765625 C-24.78121232 54.7924752 -22.84349194 49.26914864 -20.66796875 43.34375 C-20.29916595 42.32467056 -19.93036316 41.30559113 -19.55038452 40.25563049 C-18.77183766 38.10878367 -17.99000178 35.96312708 -17.20507812 33.81860352 C-16.00762742 30.5453282 -14.82136416 27.26816296 -13.63671875 23.99023438 C-12.87695977 21.89950047 -12.11656441 19.80899768 -11.35546875 17.71875 C-11.00223541 16.74360947 -10.64900208 15.76846893 -10.2850647 14.76377869 C-4.91862994 0.14215693 -4.91862994 0.14215693 0 0 Z " fill="#2E291A" transform="translate(182.37890625,411.90234375)"/>
<path d="M0 0 C1.093125 0.00257813 2.18625 0.00515625 3.3125 0.0078125 C4.405625 0.00523437 5.49875 0.00265625 6.625 0 C9.3125 0.1328125 9.3125 0.1328125 10.3125 1.1328125 C10.39963831 2.84053608 10.41950007 4.55179899 10.41015625 6.26171875 C10.40765869 7.19314697 10.40516113 8.1245752 10.40258789 9.08422852 C10.38893188 10.87171509 10.38893188 10.87171509 10.375 12.6953125 C10.3440625 18.356875 10.3440625 18.356875 10.3125 24.1328125 C18.2325 24.1328125 26.1525 24.1328125 34.3125 24.1328125 C34.27291166 16.60848476 34.27291166 16.60848476 34.22241211 9.08422852 C34.21991455 8.15280029 34.21741699 7.22137207 34.21484375 6.26171875 C34.20960693 5.30338135 34.20437012 4.34504395 34.19897461 3.35766602 C34.3125 1.1328125 34.3125 1.1328125 35.3125 0.1328125 C37.31049572 0.03407434 39.31207158 0.00309451 41.3125 0.0078125 C42.405625 0.00523437 43.49875 0.00265625 44.625 0 C47.3125 0.1328125 47.3125 0.1328125 48.3125 1.1328125 C48.41155152 2.96853881 48.44049207 4.80808825 48.44189453 6.64648438 C48.44504669 7.82440552 48.44819885 9.00232666 48.45144653 10.21594238 C48.4494223 11.49819702 48.44739807 12.78045166 48.4453125 14.1015625 C48.44626923 15.40734253 48.44722595 16.71312256 48.44821167 18.05847168 C48.44968833 20.82593972 48.44753511 23.59337554 48.44287109 26.36083984 C48.43717381 29.91543899 48.44045298 33.46996264 48.44644356 37.02455902 C48.45091747 40.40439964 48.44778886 43.78421973 48.4453125 47.1640625 C48.44733673 48.44631714 48.44936096 49.72857178 48.45144653 51.04968262 C48.44671829 52.81656433 48.44671829 52.81656433 48.44189453 54.61914062 C48.44109894 55.66203247 48.44030334 56.70492432 48.43948364 57.77941895 C48.3125 60.1328125 48.3125 60.1328125 47.3125 61.1328125 C45.31450428 61.23155066 43.31292842 61.26253049 41.3125 61.2578125 C40.219375 61.26039063 39.12625 61.26296875 38 61.265625 C35.3125 61.1328125 35.3125 61.1328125 34.3125 60.1328125 C34.22536169 58.42508892 34.20549993 56.71382601 34.21484375 55.00390625 C34.21734131 54.07247803 34.21983887 53.1410498 34.22241211 52.18139648 C34.23151611 50.98973877 34.24062012 49.79808105 34.25 48.5703125 C34.270625 44.7959375 34.29125 41.0215625 34.3125 37.1328125 C26.3925 37.1328125 18.4725 37.1328125 10.3125 37.1328125 C10.35208834 44.65714024 10.35208834 44.65714024 10.40258789 52.18139648 C10.40508545 53.11282471 10.40758301 54.04425293 10.41015625 55.00390625 C10.41539307 55.96224365 10.42062988 56.92058105 10.42602539 57.90795898 C10.3125 60.1328125 10.3125 60.1328125 9.3125 61.1328125 C7.12610547 61.20540196 4.93749611 61.21655033 2.75 61.1953125 C0.95369141 61.18177734 0.95369141 61.18177734 -0.87890625 61.16796875 C-1.80574219 61.15636719 -2.73257812 61.14476562 -3.6875 61.1328125 C-3.71062792 53.32706055 -3.72841738 45.52131655 -3.73931217 37.71553898 C-3.74454002 34.0913529 -3.75163587 30.4671902 -3.76293945 26.84301758 C-3.77377184 23.34821275 -3.77977758 19.85343046 -3.78237724 16.35861015 C-3.78513551 14.37041861 -3.79294688 12.38223619 -3.80079651 10.39405823 C-3.80087204 9.19288864 -3.80094757 7.99171906 -3.80102539 6.75415039 C-3.803246 5.69047745 -3.80546661 4.6268045 -3.80775452 3.53089905 C-3.63693115 0.12438067 -3.43126329 0.16956824 0 0 Z " fill="#2B2617" transform="translate(366.6875,411.8671875)"/>
<path d="M0 0 C1.7734375 1.63671875 1.7734375 1.63671875 3 3 C1.7508258 6.45925163 0.32472205 9.14693203 -2 12 C-7.57746479 11.23943662 -7.57746479 11.23943662 -9.875 9.9375 C-13.35116134 8.40389941 -16.21528818 8.69962605 -20 9 C-22.19411252 9.94208091 -22.19411252 9.94208091 -23 12 C-23.28219668 14.98842406 -23.28219668 14.98842406 -22 18 C-19.29626636 19.71458199 -16.35128053 20.59875206 -13.3125 21.5625 C-5.86252094 24.01794619 -0.17451054 26.15836471 3.875 33.3125 C5.66783018 39.18899894 5.87651949 43.61926414 3.375 49.1875 C-0.09998638 55.36256291 -4.96930971 58.5414995 -11.6484375 60.49609375 C-19.66580745 62.2141016 -27.77518641 60.89805764 -34.96484375 56.91015625 C-36.34818002 55.99552686 -37.68168267 55.00608428 -39 54 C-38.48964169 49.6109185 -37.47785723 46.66291938 -35 43 C-31.60348096 43.4043475 -29.15195434 43.91741612 -26.125 45.5625 C-22.00473829 47.45782038 -19.51632836 47.36422003 -15 47 C-12.59442147 46.13734032 -12.59442147 46.13734032 -11 45 C-11 42.69 -11 40.38 -11 38 C-11.54414551 37.78384033 -12.08829102 37.56768066 -12.64892578 37.3449707 C-15.14569768 36.34557179 -17.63523234 35.32921597 -20.125 34.3125 C-20.9809375 33.97283203 -21.836875 33.63316406 -22.71875 33.28320312 C-28.71380177 30.81600874 -34.11469157 28.45458249 -37.3515625 22.5234375 C-38.81157203 16.84171368 -39.16528114 10.46349012 -36.4375 5.125 C-27.50974748 -6.32083656 -12.30412571 -7.10218839 0 0 Z " fill="#2D2919" transform="translate(165,342)"/>
<path d="M0 0 C0.66 0.66 1.32 1.32 2 2 C1.76236269 6.39629018 -0.14143559 8.77258856 -3 12 C-5.36246082 11.45481673 -7.53767339 10.79687894 -9.8125 9.9375 C-13.42282285 8.87564034 -16.25556558 8.64675147 -20 9 C-22.10938785 10.02421261 -22.10938785 10.02421261 -23 12 C-23.39491898 14.53714314 -23.39491898 14.53714314 -22 17 C-18.79524656 19.27487679 -15.11239124 20.57964939 -11.45703125 21.9609375 C-5.5803135 24.18359928 -0.33387443 26.25457265 3.13671875 31.82421875 C5.20352852 37.03332754 4.7953391 43.73254737 2.8125 48.9375 C-1.01564819 55.40575038 -6.99606679 57.93878242 -14 60 C-21.84997234 61.37718813 -30.86908656 58.87040254 -37.35546875 54.36328125 C-38.16951172 53.68845703 -38.16951172 53.68845703 -39 53 C-38.46884894 48.48521602 -36.63379708 45.65333143 -34 42 C-31.39599336 42.50077051 -29.68430104 43.18791604 -27.375 44.5625 C-22.91897987 46.4604345 -18.79096503 46.63494717 -14 46 C-13.01 45.34 -12.02 44.68 -11 44 C-10.7497843 40.91634129 -10.7497843 40.91634129 -11 38 C-11.76570313 37.67128906 -11.76570313 37.67128906 -12.546875 37.3359375 C-15.04237286 36.24747567 -17.52195169 35.1276512 -20 34 C-21.53140625 33.31164062 -21.53140625 33.31164062 -23.09375 32.609375 C-29.85757165 29.42836977 -34.57436747 26.85126505 -38 20 C-38.77726133 13.1448099 -38.02556402 7.6831492 -34 2 C-24.93578335 -7.30919547 -10.6633334 -5.15300415 0 0 Z " fill="#2D2819" transform="translate(350,415)"/>
<path d="M0 0 C0.82290527 0.00202423 1.64581055 0.00404846 2.49365234 0.00613403 C3.33331543 0.00517731 4.17297852 0.00422058 5.03808594 0.00323486 C6.81689529 0.00255306 8.59570712 0.00440737 10.37451172 0.00857544 C13.10699011 0.01392371 15.83930411 0.00863048 18.57177734 0.00222778 C20.29573604 0.00288856 22.01969464 0.00416973 23.74365234 0.00613403 C24.56655762 0.0041098 25.38946289 0.00208557 26.23730469 0 C32.0037018 0.02399599 32.0037018 0.02399599 33.11865234 1.13894653 C33.24320094 2.78125018 33.29433759 4.4294693 33.30615234 6.07644653 C33.32033203 6.97234497 33.33451172 7.86824341 33.34912109 8.79129028 C33.11865234 11.13894653 33.11865234 11.13894653 31.11865234 13.13894653 C28.78027344 13.36599731 28.78027344 13.36599731 25.89208984 13.33425903 C24.34521484 13.32459106 24.34521484 13.32459106 22.76708984 13.31472778 C21.68685547 13.29796997 20.60662109 13.28121216 19.49365234 13.26394653 C18.40568359 13.2549231 17.31771484 13.24589966 16.19677734 13.23660278 C13.50397586 13.21298172 10.811287 13.17710986 8.11865234 13.13894653 C8.11865234 17.42894653 8.11865234 21.71894653 8.11865234 26.13894653 C9.55080078 26.12734497 10.98294922 26.11574341 12.45849609 26.10379028 C14.32438021 26.09441398 16.19026573 26.08531361 18.05615234 26.07644653 C19.00167969 26.06806763 19.94720703 26.05968872 20.92138672 26.05105591 C22.27006836 26.04622192 22.27006836 26.04622192 23.64599609 26.04129028 C24.89497681 26.03343506 24.89497681 26.03343506 26.16918945 26.02542114 C28.11865234 26.13894653 28.11865234 26.13894653 29.11865234 27.13894653 C29.21689171 28.80323705 29.24838865 30.47176584 29.24365234 32.13894653 C29.24751953 33.50019653 29.24751953 33.50019653 29.25146484 34.88894653 C29.11865234 37.13894653 29.11865234 37.13894653 28.11865234 38.13894653 C26.62993375 38.22564085 25.13720735 38.24598147 23.64599609 38.23660278 C22.746875 38.23338013 21.84775391 38.23015747 20.92138672 38.22683716 C19.5030957 38.2142688 19.5030957 38.2142688 18.05615234 38.20144653 C17.10675781 38.19693481 16.15736328 38.1924231 15.17919922 38.18777466 C12.82562169 38.17594764 10.47216757 38.15946679 8.11865234 38.13894653 C8.12388916 38.80015503 8.12912598 39.46136353 8.13452148 40.14260864 C8.1552289 43.12054505 8.16829247 46.09846635 8.18115234 49.07644653 C8.18953125 50.1173645 8.19791016 51.15828247 8.20654297 52.23074341 C8.20976562 53.22009888 8.21298828 54.20945435 8.21630859 55.22879028 C8.22154541 56.14523315 8.22678223 57.06167603 8.23217773 58.00588989 C8.11865234 60.13894653 8.11865234 60.13894653 7.11865234 61.13894653 C4.95384438 61.23787593 2.78571449 61.26865754 0.61865234 61.26394653 C-0.56728516 61.26652466 -1.75322266 61.26910278 -2.97509766 61.27175903 C-5.88134766 61.13894653 -5.88134766 61.13894653 -6.88134766 60.13894653 C-6.98039918 58.30322023 -7.00933973 56.46367078 -7.01074219 54.62527466 C-7.01389435 53.44735352 -7.01704651 52.26943237 -7.02029419 51.05581665 C-7.01826996 49.77356201 -7.01624573 48.49130737 -7.01416016 47.17019653 C-7.01511688 45.8644165 -7.01607361 44.55863647 -7.01705933 43.21328735 C-7.01853599 40.44581931 -7.01638277 37.67838349 -7.01171875 34.91091919 C-7.00602146 31.35632004 -7.00930064 27.80179639 -7.01529121 24.24720001 C-7.01976512 20.8673594 -7.01663652 17.4875393 -7.01416016 14.10769653 C-7.01618439 12.82544189 -7.01820862 11.54318726 -7.02029419 10.22207642 C-7.01714203 9.04415527 -7.01398987 7.86623413 -7.01074219 6.65261841 C-7.00994659 5.60972656 -7.009151 4.56683472 -7.0083313 3.49234009 C-6.75870548 -1.13398641 -3.98279358 0.01657379 0 0 Z " fill="#302C1D" transform="translate(302.88134765625,339.8610534667969)"/>
<path d="M0 0 C8.08195717 22.2734891 1.35917227 49.67445489 -7 71 C-7.99 71.99 -7.99 71.99 -9 73 C-10.44137875 70.79411638 -11.87815365 68.58545003 -13.3125 66.375 C-13.71662109 65.75753906 -14.12074219 65.14007813 -14.53710938 64.50390625 C-16.41278818 61.60651622 -18.10453828 58.78767224 -19.6328125 55.68359375 C-21.55190144 51.91669632 -24.25663862 49.87168069 -28 48 C-28 47.34 -28 46.68 -28 46 C-26.5390625 44.88671875 -26.5390625 44.88671875 -24.625 43.6875 C-21.41985669 41.51188757 -19.99216912 39.85843545 -19 36 C-25.06892629 35.74712807 -30.16200408 36.30167391 -36 38 C-30.76097519 27.33766308 -23.09151225 18.93322227 -14.8125 10.5625 C-14.23056885 9.97122314 -13.6486377 9.37994629 -13.04907227 8.77075195 C-4.21298883 0 -4.21298883 0 0 0 Z " fill="#FBFAF7" transform="translate(382,69)"/>
<path d="M0 0 C6.96003447 -0.02526838 13.9200572 -0.04283222 20.88012695 -0.05493164 C23.24992312 -0.05997341 25.61971615 -0.06680665 27.98950195 -0.07543945 C31.38754039 -0.0875119 34.78553785 -0.09322971 38.18359375 -0.09765625 C39.25024765 -0.10281754 40.31690155 -0.10797882 41.4158783 -0.11329651 C42.88729027 -0.11340981 42.88729027 -0.11340981 44.38842773 -0.11352539 C45.25668686 -0.115746 46.12494598 -0.11796661 47.01951599 -0.12025452 C49 0 49 0 50 1 C50.1245486 2.64230364 50.17568524 4.29052276 50.1875 5.9375 C50.20167969 6.83339844 50.21585937 7.72929687 50.23046875 8.65234375 C50 11 50 11 48 13 C45.41935871 13.14497985 42.95056116 13.18677545 40.375 13.125 C39.66859375 13.11597656 38.9621875 13.10695313 38.234375 13.09765625 C36.48943902 13.07407603 34.74467705 13.03820461 33 13 C33.00222061 13.58659897 33.00444122 14.17319794 33.00672913 14.77757263 C33.0287821 20.86025384 33.04390664 26.94292377 33.05493164 33.02563477 C33.05997325 35.29842591 33.06680637 37.5712138 33.07543945 39.84399414 C33.08751261 43.10303551 33.09322987 46.36203417 33.09765625 49.62109375 C33.10281754 50.64400009 33.10797882 51.66690643 33.11329651 52.72080994 C33.11337204 53.66170975 33.11344757 54.60260956 33.11352539 55.57202148 C33.115746 56.40475082 33.11796661 57.23748016 33.12025452 58.09544373 C33 60 33 60 32 61 C27.38 61 22.76 61 18 61 C18 45.16 18 29.32 18 13 C12.39 13 6.78 13 1 13 C0 12 0 12 -0.09765625 9.27734375 C-0.08605469 8.17519531 -0.07445312 7.07304687 -0.0625 5.9375 C-0.05347656 4.83277344 -0.04445313 3.72804688 -0.03515625 2.58984375 C-0.02355469 1.73519531 -0.01195312 0.88054687 0 0 Z " fill="#2E2A1A" transform="translate(341,340)"/>
<path d="M0 0 C5.70313896 2.90976478 9.63295093 6.35736045 14 11 C14.78375 11.763125 15.5675 12.52625 16.375 13.3125 C34 31.35714286 34 31.35714286 34 37 C33.443125 36.7834375 32.88625 36.566875 32.3125 36.34375 C26.94811407 34.38647405 22.70147617 33.68901039 17 34 C17.41756039 38.87153789 19.49732992 40.75362285 23 44 C23.66 44.99 24.32 45.98 25 47 C23.88625 47.639375 22.7725 48.27875 21.625 48.9375 C19.37381741 50.52815596 18.1970196 51.42104856 17.30078125 54.0546875 C17.05395971 55.58869663 16.81463827 57.12392747 16.58203125 58.66015625 C15.54148297 62.84330002 12.74669627 65.77683601 10 69 C9.21625 69.99 8.4325 70.98 7.625 72 C7.08875 72.66 6.5525 73.32 6 74 C3.3437942 68.12243824 1.38885892 62.17835488 -0.1875 55.9375 C-0.35411133 55.28974609 -0.52072266 54.64199219 -0.69238281 53.97460938 C-3.02476988 44.4247535 -3.20826079 34.92327975 -3.25 25.125 C-3.270625 23.92230469 -3.29125 22.71960938 -3.3125 21.48046875 C-3.34567504 13.84191588 -2.45534141 7.24196097 0 0 Z " fill="#FAF9F6" transform="translate(129,69)"/>
<path d="M0 0 C3.3 0.33 6.6 0.66 10 1 C10.90814558 17.4878876 8.02748188 30.37348964 -2 44 C-2.43699219 44.63164062 -2.87398438 45.26328125 -3.32421875 45.9140625 C-9.69213605 54.28988165 -19.93679401 60.4415578 -30 63 C-29.88543872 60.60325733 -29.75871281 58.20818782 -29.625 55.8125 C-29.57859375 54.80219727 -29.57859375 54.80219727 -29.53125 53.77148438 C-29.18928745 47.92962412 -28.04956145 43.98510781 -24.25 39.5625 C-19.37484339 33.28424953 -16.74388385 25.66372002 -13.98046875 18.2734375 C-12.03198226 13.31516125 -10.22303034 11.04395408 -5.68359375 8.26171875 C-2.7783514 6.08447217 -1.57787696 3.218869 0 0 Z " fill="#F9F7F3" transform="translate(312,241)"/>
<path d="M0 0 C1.71289367 1.83779216 3.01249406 3.80079317 4.3984375 5.89453125 C7.43734581 9.88958388 11.8156402 12.39359564 16.6171875 13.7265625 C19 15 19 15 20.28515625 17.90625 C21.84121261 25.10007838 22.48306793 29.66083646 19.12890625 36.26953125 C16.82619905 41.83905489 16.60307265 48.04862516 16 54 C5.4376071 50.47284714 -2.01588259 40.53365238 -7 31 C-10.59446987 23.28343166 -12.16868649 16.72326035 -12.0625 8.1875 C-12.05798828 7.49462891 -12.05347656 6.80175781 -12.04882812 6.08789062 C-12.03713156 4.39188932 -12.01919924 2.69593297 -12 1 C-3.98829681 -0.62973108 -3.98829681 -0.62973108 0 0 Z " fill="#F9F8F5" transform="translate(192,241)"/>
<path d="M0 0 C5.10010723 1.92670718 6.69033283 5.29817756 9 10 C11.44228775 17.5385282 11.16596616 26.57265024 7.75 33.6875 C5.96437803 36.96665146 4.22267819 39.07118517 1 41 C-3.51700568 41.91161387 -7.16753685 41.3926713 -11.3125 39.4375 C-16.20853839 34.99690704 -18.60019655 29.89522789 -19.2734375 23.3359375 C-19.58007353 14.39631777 -17.59114276 8.18966656 -11.75 1.375 C-7.77928645 -0.61035677 -4.35327664 -0.63435725 0 0 Z " fill="#2B2314" transform="translate(201,165)"/>
<path d="M0 0 C5.6222575 3.28849023 8.31682365 7.74009696 10 14 C11.13514763 22.5946892 9.96710221 30.65827879 4.71484375 37.73046875 C1.98097187 40.44911015 -0.70997322 41.38955143 -4.4375 41.6875 C-8.86455714 41.41127552 -11.45275324 39.92554664 -14.55859375 36.8125 C-20.03973497 29.92022486 -19.87974608 21.47126284 -19 13 C-16.48214817 3.88167784 -9.7149284 -2.1104243 0 0 Z " fill="#2A2314" transform="translate(312,165)"/>
<path d="M0 0 C1.1859375 0.00257813 2.371875 0.00515625 3.59375 0.0078125 C4.7796875 0.00523437 5.965625 0.00265625 7.1875 0 C10.09375 0.1328125 10.09375 0.1328125 11.09375 1.1328125 C11.19280152 2.96853881 11.22174207 4.80808825 11.22314453 6.64648438 C11.22629669 7.82440552 11.22944885 9.00232666 11.23269653 10.21594238 C11.2306723 11.49819702 11.22864807 12.78045166 11.2265625 14.1015625 C11.22751923 15.40734253 11.22847595 16.71312256 11.22946167 18.05847168 C11.23093833 20.82593972 11.22878511 23.59337554 11.22412109 26.36083984 C11.21842381 29.91543899 11.22170298 33.46996264 11.22769356 37.02455902 C11.23216747 40.40439964 11.22903886 43.78421973 11.2265625 47.1640625 C11.22858673 48.44631714 11.23061096 49.72857178 11.23269653 51.04968262 C11.22954437 52.22760376 11.22639221 53.4055249 11.22314453 54.61914062 C11.22234894 55.66203247 11.22155334 56.70492432 11.22073364 57.77941895 C11.09375 60.1328125 11.09375 60.1328125 10.09375 61.1328125 C7.74061445 61.20552991 5.38541332 61.21652118 3.03125 61.1953125 C1.74089844 61.18628906 0.45054687 61.17726563 -0.87890625 61.16796875 C-1.87792969 61.15636719 -2.87695312 61.14476562 -3.90625 61.1328125 C-3.92937792 53.32706055 -3.94716738 45.52131655 -3.95806217 37.71553898 C-3.96329002 34.0913529 -3.97038587 30.4671902 -3.98168945 26.84301758 C-3.99252184 23.34821275 -3.99852758 19.85343046 -4.00112724 16.35861015 C-4.00388551 14.37041861 -4.01169688 12.38223619 -4.01954651 10.39405823 C-4.01962204 9.19288864 -4.01969757 7.99171906 -4.01977539 6.75415039 C-4.021996 5.69047745 -4.02421661 4.6268045 -4.02650452 3.53089905 C-3.84961749 0.00346063 -3.5796671 0.16358694 0 0 Z " fill="#312D1E" transform="translate(273.90625,339.8671875)"/>
<path d="M0 0 C1.093125 0.00257813 2.18625 0.00515625 3.3125 0.0078125 C4.405625 0.00523437 5.49875 0.00265625 6.625 0 C9.3125 0.1328125 9.3125 0.1328125 10.3125 1.1328125 C10.40636381 3.0046219 10.42993804 4.8799931 10.42602539 6.75415039 C10.42594986 7.95531998 10.42587433 9.15648956 10.42579651 10.39405823 C10.42063522 11.7013237 10.41547394 13.00858917 10.41015625 14.35546875 C10.40829198 15.69925382 10.40686812 17.04303957 10.40586853 18.38682556 C10.40204402 21.92963527 10.39221432 25.4724042 10.38116455 29.01519775 C10.37094899 32.62796477 10.3663706 36.24073834 10.36132812 39.85351562 C10.35059198 46.9466313 10.33351636 54.03971924 10.3125 61.1328125 C8.16673363 61.15967188 6.02087355 61.17914338 3.875 61.1953125 C2.68003906 61.20691406 1.48507812 61.21851563 0.25390625 61.23046875 C-2.6875 61.1328125 -2.6875 61.1328125 -3.6875 60.1328125 C-3.78655152 58.29708619 -3.81549207 56.45753675 -3.81689453 54.61914062 C-3.82004669 53.44121948 -3.82319885 52.26329834 -3.82644653 51.04968262 C-3.8244223 49.76742798 -3.82239807 48.48517334 -3.8203125 47.1640625 C-3.82126923 45.85828247 -3.82222595 44.55250244 -3.82321167 43.20715332 C-3.82468833 40.43968528 -3.82253511 37.67224946 -3.81787109 34.90478516 C-3.81217381 31.35018601 -3.81545298 27.79566236 -3.82144356 24.24106598 C-3.82591747 20.86122536 -3.82278886 17.48140527 -3.8203125 14.1015625 C-3.82233673 12.81930786 -3.82436096 11.53705322 -3.82644653 10.21594238 C-3.82329437 9.03802124 -3.82014221 7.8601001 -3.81689453 6.64648438 C-3.81609894 5.60359253 -3.81530334 4.56070068 -3.81448364 3.48620605 C-3.63247357 0.11300522 -3.40190567 0.16811743 0 0 Z " fill="#2B2718" transform="translate(291.6875,411.8671875)"/>
<path d="M0 0 C16.78991597 0 16.78991597 0 21.4921875 4.39453125 C25.96644044 9.38698862 26.36317752 13.93229336 26.27734375 20.3984375 C25.8383731 24.51610583 24.49079922 27.70178575 22 31 C14.34101856 37.09592401 10.87425887 36 0 36 C0 24.12 0 12.24 0 0 Z " fill="#FCFBF8" transform="translate(114,425)"/>
<path d="M0 0 C1.18613892 0.00785522 1.18613892 0.00785522 2.39624023 0.01586914 C3.67724609 0.02070312 3.67724609 0.02070312 4.98413086 0.02563477 C5.88196289 0.03401367 6.77979492 0.04239258 7.70483398 0.05102539 C8.6065332 0.05553711 9.50823242 0.06004883 10.43725586 0.06469727 C12.67234712 0.07652315 14.90730835 0.09300319 17.14233398 0.11352539 C16.9115918 1.00168945 16.68084961 1.88985352 16.44311523 2.80493164 C14.80441774 9.22370325 13.22296982 15.63538843 11.86889648 22.12133789 C11.65450928 23.14412842 11.44012207 24.16691895 11.21923828 25.22070312 C10.79858299 27.24720479 10.38576069 29.27535092 9.98144531 31.30517578 C7.88876642 41.36709296 7.88876642 41.36709296 4.14233398 45.11352539 C1.76733398 45.42602539 1.76733398 45.42602539 -0.85766602 45.11352539 C-6.45895003 39.51224138 -5.04128067 31.24212242 -5.04516602 23.92602539 C-5.06353516 22.13455078 -5.06353516 22.13455078 -5.08227539 20.30688477 C-5.09337267 13.58563525 -4.69759337 7.59089047 -2.85766602 1.11352539 C-1.85766602 0.11352539 -1.85766602 0.11352539 0 0 Z " fill="#F8F7F3" transform="translate(250.857666015625,89.886474609375)"/>
<path d="M0 0 C-0.23589844 1.63775391 -0.23589844 1.63775391 -0.4765625 3.30859375 C-0.8971131 6.66045585 -1.10857031 9.97134562 -1.2109375 13.34765625 C-1.25347656 14.75047852 -1.25347656 14.75047852 -1.296875 16.18164062 C-1.34905889 18.10592148 -1.3932999 20.03043377 -1.4296875 21.95507812 C-1.62008137 27.70259313 -2.34392281 31.87959451 -5 37 C-8.11334043 37.34592671 -9.51968246 37.37594085 -12.03125 35.41015625 C-18.99389901 26.88643712 -18.53112893 13.4012748 -18 3 C-15.93918639 2.49309416 -13.87626474 1.99475381 -11.8125 1.5 C-10.66394531 1.2215625 -9.51539063 0.943125 -8.33203125 0.65625 C-5.43181171 0.08504615 -2.93903615 -0.13283779 0 0 Z " fill="#F9F7F4" transform="translate(231,92)"/>
<path d="M0 0 C0.77923828 1.41152344 0.77923828 1.41152344 1.57421875 2.8515625 C2.27832029 4.10955726 2.98276585 5.36735952 3.6875 6.625 C4.02716797 7.24246094 4.36683594 7.85992187 4.71679688 8.49609375 C7.1068257 12.74007016 9.78441354 16.33952504 13 20 C5.77524495 19.25549317 -1.38700952 18.24603668 -8.5625 17.125 C-9.64724609 16.96386719 -10.73199219 16.80273438 -11.84960938 16.63671875 C-17.87386958 15.69302772 -23.54025554 14.79154592 -29 12 C-30 9.3125 -30 9.3125 -30 7 C-19.51070718 1.36845345 -11.92474083 -0.35774222 0 0 Z " fill="#F8F6F2" transform="translate(382,185)"/>
<path d="M0 0 C10.57242368 -0.55563103 19.34860444 0.0107796 28.1875 6.25 C28.785625 6.8275 29.38375 7.405 30 8 C29.75 9.875 29.75 9.875 29 12 C25.30919342 14.48166754 20.87783711 14.96121713 16.5859375 15.76171875 C15.36966171 15.99408989 15.36966171 15.99408989 14.1288147 16.2311554 C12.41977238 16.55592261 10.7101501 16.87765073 9 17.1965332 C6.37572296 17.68736478 3.75428266 18.19168235 1.1328125 18.69726562 C-0.52849217 19.01123085 -2.18994577 19.32440927 -3.8515625 19.63671875 C-5.03125107 19.8647242 -5.03125107 19.8647242 -6.23477173 20.09733582 C-11.7702778 21.1148611 -11.7702778 21.1148611 -14 20 C-13.49210937 19.47792969 -12.98421875 18.95585937 -12.4609375 18.41796875 C-7.16203209 12.75191072 -3.42750368 6.94588815 0 0 Z " fill="#F9F9F6" transform="translate(123,186)"/>
<path d="M0 0 C5.81774472 -0.09777722 10.40169927 0.40048551 16 2 C16.30826569 7.64419804 15.39297846 11.77281181 13.375 16.9375 C12.97220825 17.9886499 12.97220825 17.9886499 12.5612793 19.06103516 C9.95733531 25.57885479 6.93558014 31.04294657 1 35 C-3.54054054 34.45945946 -3.54054054 34.45945946 -5 33 C-5.01534169 30.64351616 -4.95093456 28.34925923 -4.8125 26 C-4.77133057 25.29681641 -4.73016113 24.59363281 -4.68774414 23.86914062 C-4.08106762 15.69838873 -2.1010255 7.895947 0 0 Z " fill="#FAF8F5" transform="translate(283,93)"/>
<path d="M0 0 C-0.33 1.32 -0.66 2.64 -1 4 C-4.55531726 3.54419009 -7.76741695 2.77343159 -11.125 1.5625 C-28.00535242 -4.09200229 -47.53442993 -3.6565195 -64.7578125 0.34375 C-67.93471457 0.9867856 -70.76930163 1.11783702 -74 1 C-74.33 -0.32 -74.66 -1.64 -75 -3 C-56.02030387 -15.58283558 -17.83004609 -12.81618351 0 0 Z " fill="#2D2415" transform="translate(205,225)"/>
<path d="M0 0 C0.69822876 0.00332336 1.39645752 0.00664673 2.11584473 0.0100708 C26.76132153 0.14770377 26.76132153 0.14770377 36.125 5.375 C36.125 6.695 36.125 8.015 36.125 9.375 C31.05115593 9.54699471 26.48974455 9.31596112 21.5 8.375 C4.28983317 5.60370126 -15.39159882 5.95968555 -31.75390625 12.53125 C-34.4653764 13.60984586 -36.11673101 13.16307685 -38.875 12.375 C-38.875 10.125 -38.875 10.125 -37.875 7.375 C-26.89408797 0.05439198 -12.76411461 -0.14455525 0 0 Z " fill="#292314" transform="translate(336.875,216.625)"/>
<path d="M0 0 C1.22396484 -0.01740234 1.22396484 -0.01740234 2.47265625 -0.03515625 C7.88848758 -0.00907681 11.66908751 0.92058478 16.5 3.375 C16.1669985 6.35869348 15.57486434 7.30630728 13.3203125 9.375 C12.43085938 10.035 11.54140625 10.695 10.625 11.375 C7.35935668 13.81233146 4.78539888 15.98473941 2.5 19.375 C-3.53538555 19.25429229 -3.53538555 19.25429229 -6.08984375 16.92578125 C-7.08587323 15.70782478 -8.05950376 14.4712592 -9.01171875 13.21875 C-10.49754501 11.37804135 -12.00480958 10.06158655 -13.875 8.625 C-14.74125 7.8825 -15.6075 7.14 -16.5 6.375 C-16.5 5.385 -16.5 4.395 -16.5 3.375 C-10.83242738 0.49550746 -6.31385716 -0.08977048 0 0 Z " fill="#DE3127" transform="translate(250.5,205.625)"/>
<path d="M0 0 C2.3993192 2.11320792 4.42207167 4.20588185 6 7 C5.875 9.9375 5.875 9.9375 5 12 C1.07226147 11.45942275 -1.05739282 10.40441604 -4.125 7.9375 C-9.27091687 4.34912653 -13.88248363 4.03602772 -20 5 C-21.6747064 5.64620483 -23.34261856 6.31057344 -25 7 C-27.8125 7.125 -27.8125 7.125 -30 7 C-30.33 5.68 -30.66 4.36 -31 3 C-21.76992974 -5.92146609 -10.81689861 -7.53562184 0 0 Z " fill="#2E2314" transform="translate(324,139)"/>
<path d="M0 0 C3.35621638 1.92649243 5.24455211 3.06816061 6.6640625 6.7421875 C6.6015625 8.9921875 6.6015625 8.9921875 5.6015625 9.9921875 C-0.79378634 9.29451308 -0.79378634 9.29451308 -3.3984375 7.9921875 C-9.51970703 7.16555452 -14.1301348 7.3164093 -19.2734375 10.9296875 C-19.95148438 11.47496094 -20.62953125 12.02023438 -21.328125 12.58203125 C-23.68868631 14.18988527 -25.59199271 14.60593465 -28.3984375 14.9921875 C-29.2734375 12.9296875 -29.2734375 12.9296875 -29.3984375 9.9921875 C-23.56267324 -0.34149783 -10.82579618 -4.54895018 0 0 Z " fill="#2E2314" transform="translate(203.3984375,136.0078125)"/>
<path d="M0 0 C-0.80357143 8.03571429 -0.80357143 8.03571429 -3 12 C-3.83402344 11.69964844 -4.66804688 11.39929688 -5.52734375 11.08984375 C-14.6108129 8.02040114 -20.82611791 6.80122272 -29.5625 11.0625 C-31.2640625 12.0215625 -31.2640625 12.0215625 -33 13 C-31.53052794 7.73439177 -29.86519663 3.90392936 -25.1953125 0.80078125 C-17.41610151 -3.25979592 -7.99293093 -3.70043099 0 0 Z " fill="#DD3127" transform="translate(282,260)"/>
<path d="M0 0 C0.66 0 1.32 0 2 0 C3.0070436 3.1019264 4.00440805 6.20688098 5 9.3125 C5.28617188 10.19357422 5.57234375 11.07464844 5.8671875 11.98242188 C6.13789063 12.82998047 6.40859375 13.67753906 6.6875 14.55078125 C7.06455078 15.72120972 7.06455078 15.72120972 7.44921875 16.9152832 C8 19 8 19 8 22 C3.38 22 -1.24 22 -6 22 C-4.47536437 14.50387484 -2.31993846 7.28640866 0 0 Z " fill="#F0EFEC" transform="translate(185,428)"/>
<path d="M0 0 C3.0625 1.5 3.0625 1.5 5 3 C4.01 5.97 3.02 8.94 2 12 C0.68 11.505 -0.64 11.01 -2 10.5 C-6.56959182 8.96479013 -10.204934 8.75197934 -15 9 C-15.99 9 -16.98 9 -18 9 C-16.87895467 7.68412059 -15.75303035 6.37239647 -14.625 5.0625 C-13.99851563 4.33160156 -13.37203125 3.60070312 -12.7265625 2.84765625 C-9.17699404 -0.95086385 -4.9065706 -0.50757627 0 0 Z " fill="#DE3228" transform="translate(240,259)"/>
<path d="M0 0 C0.99 0.33 1.98 0.66 3 1 C3.625 3.875 3.625 3.875 4 7 C3.34 7.66 2.68 8.32 2 9 C-0.125 8.625 -0.125 8.625 -2 8 C-2.125 5.125 -2.125 5.125 -2 2 C-1.34 1.34 -0.68 0.68 0 0 Z " fill="#E7E7E3" transform="translate(201,176)"/>
<path d="M0 0 C2.0625 0.4375 2.0625 0.4375 4 1 C4 3.31 4 5.62 4 8 C2.0625 8.5625 2.0625 8.5625 0 9 C-1 8 -1 8 -1.125 4.5 C-1 1 -1 1 0 0 Z " fill="#F0F0EC" transform="translate(309,176)"/>
<path d="M0 0 C-0.99 1.98 -1.98 3.96 -3 6 C-3.66 6 -4.32 6 -5 6 C-7 3 -7 3 -7 0 C-3.86650268 -1.04449911 -3.01031744 -0.93423645 0 0 Z " fill="#E23B32" transform="translate(186,225)"/>
<path d="M0 0 C0.66 0 1.32 0 2 0 C2.33 3.3 2.66 6.6 3 10 C1.68 9.67 0.36 9.34 -1 9 C-0.67 6.03 -0.34 3.06 0 0 Z " fill="#2F1F11" transform="translate(239,295)"/>
<path d="M0 0 C0.33 0 0.66 0 1 0 C1 3.3 1 6.6 1 10 C0.01 10 -0.98 10 -2 10 C-1.34 6.7 -0.68 3.4 0 0 Z " fill="#352012" transform="translate(391,130)"/>
<path d="M0 0 C2.10814567 4.21629134 2.17700355 6.39790775 2 11 C1.01 11 0.02 11 -1 11 C-0.67 7.37 -0.34 3.74 0 0 Z " fill="#D5352B" transform="translate(394,100)"/>
<path d="M0 0 C0.33 0.66 0.66 1.32 1 2 C-0.98 4.64 -2.96 7.28 -5 10 C-5.66 9.34 -6.32 8.68 -7 8 C-4.69 5.36 -2.38 2.72 0 0 Z " fill="#382213" transform="translate(356,80)"/>
</svg>
